Coordinates
version=1
nRows=21
nColumns=12
inDegrees=yes

Units are S.I. units (second, meters, Newtons, ...)
Angles are in degrees

endheader
time	SC_y	SC_z	SC_x	AC_y	AC_z	AC_x	GH_y	GH_z	GH_yy	EL_x	PS_y
       0.0              -48.42          33.34          71.23          34.91          8.333          6.002           70.8           19.8          67.29          41.48          150.8
   0.03038              -48.41          33.33          71.23          34.92          8.331          6.003           70.8          19.81          67.29          41.49          150.8
   0.06076              -48.41          33.33          71.23          34.92          8.328          6.005           70.8          19.82          67.29          41.51          150.7
   0.09114              -48.41          33.32          71.22          34.93          8.326          6.006           70.8          19.83           67.3          41.52          150.7
    0.1215              -48.41          33.31          71.22          34.93          8.323          6.008          70.79          19.84           67.3          41.53          150.7
    0.1519              -48.41          33.31          71.22          34.94           8.32          6.009          70.79          19.85           67.3          41.55          150.7
    0.1823              -48.41           33.3          71.21          34.95          8.317          6.011          70.79          19.86          67.31          41.57          150.7
    0.2127               -48.4          33.29          71.21          34.95          8.314          6.013          70.78          19.87          67.31          41.59          150.7
     0.243               -48.4          33.29           71.2          34.96          8.311          6.015          70.78          19.88          67.31           41.6          150.7
    0.2734               -48.4          33.28           71.2          34.97          8.307          6.017          70.78           19.9          67.32          41.63          150.6
    0.3038               -48.4          33.27          71.19          34.98          8.303          6.019          70.77          19.91          67.32          41.65          150.6
    0.3342               -48.4          33.26          71.19          34.99          8.298          6.021          70.77          19.93          67.32          41.67          150.6
    0.3646              -48.39          33.25          71.18           35.0          8.294          6.024          70.76          19.94          67.33           41.7          150.6
    0.3949              -48.39          33.24          71.18          35.01          8.289          6.027          70.76          19.96          67.33          41.73          150.6
    0.4253              -48.39          33.23          71.17          35.02          8.283           6.03          70.75          19.98          67.34          41.76          150.5
    0.4557              -48.38          33.22          71.16          35.03          8.277          6.033          70.75           20.0          67.35          41.79          150.5
    0.4861              -48.38           33.2          71.15          35.05          8.271          6.037          70.74          20.03          67.35          41.82          150.5
    0.5165              -48.37          33.19          71.14          35.06          8.264           6.04          70.73          20.05          67.36          41.86          150.5
    0.5468              -48.37          33.17          71.13          35.08          8.256          6.045          70.73          20.08          67.37          41.91          150.4
    0.5772              -48.37          33.15          71.12           35.1          8.248          6.049          70.72          20.11          67.38          41.95          150.4
    0.6076              -48.36          33.13          71.11          35.12          8.238          6.054          70.71          20.14          67.38           42.0          150.3
